<svg width="23" height="23" viewBox="0 0 23 23" fill="none" xmlns="http://www.w3.org/2000/svg">
<g clip-path="url(#clip0_0_18967)">
<path opacity="0.2" d="M16.8605 10.5378L11.9429 5.62023L14.5474 3.01566C14.6792 2.88401 14.8578 2.81006 15.044 2.81006C15.2303 2.81006 15.4089 2.88401 15.5406 3.01566L19.465 6.93745C19.5967 7.06918 19.6706 7.2478 19.6706 7.43404C19.6706 7.62027 19.5967 7.79889 19.465 7.93063L16.8605 10.5378Z" fill="#4C3D93"/>
<path d="M8.13963 18.968H4.21521C4.02889 18.968 3.8502 18.894 3.71846 18.7622C3.58671 18.6305 3.5127 18.4518 3.5127 18.2655V14.3411C3.51278 14.155 3.58668 13.9766 3.71818 13.8449L14.5474 3.01566C14.6792 2.88401 14.8578 2.81006 15.044 2.81006C15.2303 2.81006 15.4089 2.88401 15.5406 3.01566L19.465 6.93745C19.5967 7.06918 19.6706 7.2478 19.6706 7.43404C19.6706 7.62027 19.5967 7.79889 19.465 7.93063L8.63578 18.7625C8.50414 18.894 8.3257 18.9679 8.13963 18.968Z" stroke="#4C3D93" stroke-width="1.40503" stroke-linecap="round" stroke-linejoin="round"/>
<path d="M11.9429 5.62012L16.8605 10.5377" stroke="#4C3D93" stroke-width="1.40503" stroke-linecap="round" stroke-linejoin="round"/>
</g>
<defs>
<clipPath id="clip0_0_18967">
<rect width="22.4805" height="22.4805" fill="white"/>
</clipPath>
</defs>
</svg>
