<svg width="24" height="24" viewBox="0 0 24 24" fill="none" xmlns="http://www.w3.org/2000/svg">
<g clip-path="url(#clip0_0_18972)">
<path opacity="0.2" d="M8.99096 10.5265L13.5619 15.0984L15.9271 12.736C16.0652 12.598 16.2524 12.5204 16.4477 12.5204C16.6429 12.5204 16.8302 12.598 16.9683 12.736L20.6223 16.3928V5.15546C20.6223 4.96012 20.5447 4.77279 20.4066 4.63466C20.2685 4.49654 20.0811 4.41895 19.8858 4.41895H3.68256C3.48722 4.41895 3.29989 4.49654 3.16176 4.63466C3.02364 4.77279 2.94604 4.96012 2.94604 5.15546V15.5301L7.9488 10.5265C8.0172 10.458 8.09843 10.4037 8.18784 10.3666C8.27725 10.3295 8.37309 10.3105 8.46988 10.3105C8.56667 10.3105 8.66251 10.3295 8.75192 10.3666C8.84133 10.4037 8.92256 10.458 8.99096 10.5265Z" fill="#4C3D93"/>
<path d="M19.8858 4.41895H3.68256C3.27579 4.41895 2.94604 4.74869 2.94604 5.15546V18.4127C2.94604 18.8194 3.27579 19.1492 3.68256 19.1492H19.8858C20.2926 19.1492 20.6223 18.8194 20.6223 18.4127V5.15546C20.6223 4.74869 20.2926 4.41895 19.8858 4.41895Z" stroke="#4C3D93" stroke-width="1.47302" stroke-linecap="round" stroke-linejoin="round"/>
<path d="M14.3621 10.3111C14.9722 10.3111 15.4669 9.81648 15.4669 9.20633C15.4669 8.59618 14.9722 8.10156 14.3621 8.10156C13.7519 8.10156 13.2573 8.59618 13.2573 9.20633C13.2573 9.81648 13.7519 10.3111 14.3621 10.3111Z" fill="#4C3D93"/>
<path d="M13.5623 15.0984L15.9274 12.7361C16.0655 12.598 16.2527 12.5205 16.448 12.5205C16.6433 12.5205 16.8305 12.598 16.9686 12.7361L20.6226 16.3928" stroke="#4C3D93" stroke-width="1.47302" stroke-linecap="round" stroke-linejoin="round"/>
<path d="M2.94604 15.5302L7.9488 10.5266C8.0172 10.4581 8.09843 10.4038 8.18784 10.3667C8.27725 10.3296 8.37309 10.3105 8.46988 10.3105C8.56667 10.3105 8.66251 10.3296 8.75192 10.3667C8.84133 10.4038 8.92256 10.4581 8.99096 10.5266L17.6127 19.1493" stroke="#4C3D93" stroke-width="1.47302" stroke-linecap="round" stroke-linejoin="round"/>
</g>
<defs>
<clipPath id="clip0_0_18972">
<rect width="23.5684" height="23.5684" fill="white"/>
</clipPath>
</defs>
</svg>
