<svg width="19" height="19" viewBox="0 0 19 19" fill="none" xmlns="http://www.w3.org/2000/svg">
<g clip-path="url(#clip0_16_1662)">
<path d="M5.34375 7.71924C5.34375 7.08935 5.59397 6.48526 6.03937 6.03986C6.48477 5.59446 7.08886 5.34424 7.71875 5.34424L8.90625 7.71924L7.99188 9.09006C8.35458 9.95674 9.04375 10.6459 9.91043 11.0086L11.2812 10.0942L13.6562 11.2817C13.6562 11.9116 13.406 12.5157 12.9606 12.9611C12.5152 13.4065 11.9111 13.6567 11.2812 13.6567C9.70653 13.6567 8.1963 13.0312 7.0828 11.9177C5.96931 10.8042 5.34375 9.29396 5.34375 7.71924Z" stroke="#14831F" stroke-width="1.1875" stroke-linecap="round" stroke-linejoin="round"/>
<path d="M5.93212 15.6686C7.42876 16.5348 9.18934 16.8272 10.8856 16.4912C12.5819 16.1551 14.0981 15.2137 15.1515 13.8424C16.2049 12.471 16.7236 10.7634 16.611 9.03784C16.4984 7.31228 15.762 5.68658 14.5393 4.46383C13.3165 3.24107 11.6908 2.50474 9.96525 2.39209C8.23969 2.27945 6.53206 2.7982 5.16072 3.85161C3.78938 4.90502 2.84795 6.4212 2.51193 8.11747C2.17592 9.81375 2.46826 11.5743 3.33446 13.071L2.40598 15.843C2.3711 15.9477 2.36603 16.0599 2.39136 16.1673C2.41669 16.2746 2.47141 16.3727 2.54939 16.4507C2.62737 16.5287 2.72553 16.5834 2.83286 16.6088C2.9402 16.6341 3.05246 16.629 3.15708 16.5941L5.93212 15.6686Z" stroke="#14831F" stroke-width="1.1875" stroke-linecap="round" stroke-linejoin="round"/>
</g>
<defs>
<clipPath id="clip0_16_1662">
<rect width="19" height="19" fill="white"/>
</clipPath>
</defs>
</svg>
